<mxfile host="app.diagrams.net" modified="2023-08-03T11:07:16.770Z" agent="Mozilla/5.0 (X11; Linux x86_64) AppleWebKit/537.36 (KHTML, like Gecko) Chrome/114.0.0.0 Safari/537.36" etag="vTr9SD6cEROirYXJMbp9" version="21.6.6" type="device">
  <diagram name="Страница 1" id="TCb4qISm6KaE92ohDFvd">
    <mxGraphModel dx="5564" dy="2964" grid="1" gridSize="10" guides="1" tooltips="1" connect="1" arrows="1" fold="1" page="1" pageScale="1" pageWidth="827" pageHeight="1169" math="0" shadow="0">
      <root>
        <mxCell id="0" />
        <mxCell id="1" parent="0" />
        <mxCell id="FaRXy2FFPlZX_t-hhjQD-1" value="reputation_change" style="swimlane;childLayout=stackLayout;horizontal=1;startSize=30;horizontalStack=0;rounded=1;fontSize=14;fontStyle=0;strokeWidth=2;resizeParent=0;resizeLast=1;shadow=0;dashed=0;align=center;" parent="1" vertex="1">
          <mxGeometry x="-625" y="20" width="200" height="200" as="geometry" />
        </mxCell>
        <mxCell id="FaRXy2FFPlZX_t-hhjQD-2" value="+address binary(32)&#xa;+contract_package_hash binary(32)&#xa;+amount bigint&#xa;+voting_id int unsigned&#xa;+deploy_hash binary(32)&#xa;+reason tinyint unsugned&#xa;+timestamp datatime&#xa;" style="align=left;strokeColor=none;fillColor=none;spacingLeft=4;fontSize=12;verticalAlign=top;resizable=0;rotatable=0;part=1;" parent="FaRXy2FFPlZX_t-hhjQD-1" vertex="1">
          <mxGeometry y="30" width="200" height="170" as="geometry" />
        </mxCell>
        <mxCell id="FaRXy2FFPlZX_t-hhjQD-3" value="votings" style="swimlane;childLayout=stackLayout;horizontal=1;startSize=30;horizontalStack=0;rounded=1;fontSize=14;fontStyle=0;strokeWidth=2;resizeParent=0;resizeLast=1;shadow=0;dashed=0;align=center;" parent="1" vertex="1">
          <mxGeometry x="-640" y="850" width="230" height="200" as="geometry" />
        </mxCell>
        <mxCell id="FaRXy2FFPlZX_t-hhjQD-4" value="+creator binary(32)&#xa;+deploy_hash binary(32)&#xa;+voring_id int unsgined&#xa;+infromal_voting_id int unsigned null&#xa;+is_formal tinyint &#xa;+has_ended tinyint&#xa;+voting_type tinyint unsigned&#xa;+voting_quorum int unsigned&#xa;+voting_time int unsigned &#xa;+timestamp datatime&#xa;" style="align=left;strokeColor=none;fillColor=none;spacingLeft=4;fontSize=12;verticalAlign=top;resizable=0;rotatable=0;part=1;" parent="FaRXy2FFPlZX_t-hhjQD-3" vertex="1">
          <mxGeometry y="30" width="230" height="170" as="geometry" />
        </mxCell>
        <mxCell id="FaRXy2FFPlZX_t-hhjQD-5" value="votes" style="swimlane;childLayout=stackLayout;horizontal=1;startSize=30;horizontalStack=0;rounded=1;fontSize=14;fontStyle=0;strokeWidth=2;resizeParent=0;resizeLast=1;shadow=0;dashed=0;align=center;" parent="1" vertex="1">
          <mxGeometry x="-640" y="550" width="190" height="130" as="geometry" />
        </mxCell>
        <mxCell id="FaRXy2FFPlZX_t-hhjQD-6" value="+deploy_hash binary(32)&#xa;+voting_id int unsigned&#xa;+ account binary(32)&#xa;+amount int unsigned&#xa;+is_in_favour tinyint unsigned&#xa;+timestamp datatime" style="align=left;strokeColor=none;fillColor=none;spacingLeft=4;fontSize=12;verticalAlign=top;resizable=0;rotatable=0;part=1;" parent="FaRXy2FFPlZX_t-hhjQD-5" vertex="1">
          <mxGeometry y="30" width="190" height="100" as="geometry" />
        </mxCell>
        <mxCell id="FaRXy2FFPlZX_t-hhjQD-7" value="settings" style="swimlane;childLayout=stackLayout;horizontal=1;startSize=30;horizontalStack=0;rounded=1;fontSize=14;fontStyle=0;strokeWidth=2;resizeParent=0;resizeLast=1;shadow=0;dashed=0;align=center;" parent="1" vertex="1">
          <mxGeometry x="-640" y="1390" width="200" height="160" as="geometry" />
        </mxCell>
        <mxCell id="FaRXy2FFPlZX_t-hhjQD-8" value="+name varchar(64) PK&#xa;+value varchar(64)&#xa;+next_value varchar(64)&#xa;+activation_time timestamp" style="align=left;strokeColor=none;fillColor=none;spacingLeft=4;fontSize=12;verticalAlign=top;resizable=0;rotatable=0;part=1;" parent="FaRXy2FFPlZX_t-hhjQD-7" vertex="1">
          <mxGeometry y="30" width="200" height="130" as="geometry" />
        </mxCell>
        <mxCell id="FaRXy2FFPlZX_t-hhjQD-9" value="accounts" style="swimlane;childLayout=stackLayout;horizontal=1;startSize=30;horizontalStack=0;rounded=1;fontSize=14;fontStyle=0;strokeWidth=2;resizeParent=0;resizeLast=1;shadow=0;dashed=0;align=center;" parent="1" vertex="1">
          <mxGeometry x="-640" y="1145" width="220" height="150" as="geometry" />
        </mxCell>
        <mxCell id="FaRXy2FFPlZX_t-hhjQD-10" value="+hash binary(32) PK&#xa;+is_kyc smallint&#xa;+is_va smallint&#xa;+timestamp datatime&#xa;" style="align=left;strokeColor=none;fillColor=none;spacingLeft=4;fontSize=12;verticalAlign=top;resizable=0;rotatable=0;part=1;" parent="FaRXy2FFPlZX_t-hhjQD-9" vertex="1">
          <mxGeometry y="30" width="220" height="120" as="geometry" />
        </mxCell>
        <mxCell id="FaRXy2FFPlZX_t-hhjQD-15" value="&lt;font style=&quot;font-size: 30px;&quot;&gt;&lt;b&gt;Persistenсe Layer&lt;/b&gt;&lt;/font&gt;" style="text;html=1;strokeColor=none;fillColor=none;align=center;verticalAlign=middle;whiteSpace=wrap;rounded=0;" parent="1" vertex="1">
          <mxGeometry x="-570" y="-70" width="440" height="20" as="geometry" />
        </mxCell>
        <mxCell id="FaRXy2FFPlZX_t-hhjQD-16" value="" style="endArrow=none;dashed=1;html=1;dashPattern=1 3;strokeWidth=2;rounded=0;fontSize=24;" parent="1" edge="1">
          <mxGeometry width="50" height="50" relative="1" as="geometry">
            <mxPoint x="-90" y="2440" as="sourcePoint" />
            <mxPoint x="-90" as="targetPoint" />
          </mxGeometry>
        </mxCell>
        <mxCell id="FaRXy2FFPlZX_t-hhjQD-17" value="&lt;font style=&quot;font-size: 30px;&quot;&gt;&lt;b&gt;Domain Layer&lt;/b&gt;&lt;/font&gt;" style="text;html=1;strokeColor=none;fillColor=none;align=center;verticalAlign=middle;whiteSpace=wrap;rounded=0;" parent="1" vertex="1">
          <mxGeometry y="-80" width="440" height="20" as="geometry" />
        </mxCell>
        <mxCell id="FaRXy2FFPlZX_t-hhjQD-18" value="&lt;font style=&quot;font-size: 30px;&quot;&gt;&lt;b&gt;&amp;nbsp;API&lt;/b&gt;&lt;/font&gt;" style="text;html=1;strokeColor=none;fillColor=none;align=center;verticalAlign=middle;whiteSpace=wrap;rounded=0;" parent="1" vertex="1">
          <mxGeometry x="460" y="-80" width="440" height="20" as="geometry" />
        </mxCell>
        <mxCell id="FaRXy2FFPlZX_t-hhjQD-19" value="entities.Account" style="swimlane;childLayout=stackLayout;horizontal=1;startSize=30;horizontalStack=0;rounded=1;fontSize=14;fontStyle=0;strokeWidth=2;resizeParent=0;resizeLast=1;shadow=0;dashed=0;align=center;" parent="1" vertex="1">
          <mxGeometry y="1150" width="160" height="120" as="geometry" />
        </mxCell>
        <mxCell id="FaRXy2FFPlZX_t-hhjQD-20" value="+Hash types.Hash&#xa;+IsKyc bool&#xa;+IsVa bool&#xa;+Timestamp time.Time&#xa;" style="align=left;strokeColor=none;fillColor=none;spacingLeft=4;fontSize=12;verticalAlign=top;resizable=0;rotatable=0;part=1;" parent="FaRXy2FFPlZX_t-hhjQD-19" vertex="1">
          <mxGeometry y="30" width="160" height="90" as="geometry" />
        </mxCell>
        <mxCell id="FaRXy2FFPlZX_t-hhjQD-21" value="" style="endArrow=none;dashed=1;html=1;dashPattern=1 3;strokeWidth=2;rounded=0;fontSize=24;" parent="1" edge="1">
          <mxGeometry width="50" height="50" relative="1" as="geometry">
            <mxPoint x="440" y="2340" as="sourcePoint" />
            <mxPoint x="440" as="targetPoint" />
          </mxGeometry>
        </mxCell>
        <mxCell id="FaRXy2FFPlZX_t-hhjQD-22" value="&lt;font style=&quot;font-size: 25px;&quot;&gt;&lt;b&gt;GET&lt;/b&gt; /accounts&lt;/font&gt;" style="text;html=1;strokeColor=none;fillColor=none;align=center;verticalAlign=middle;whiteSpace=wrap;rounded=0;fontSize=24;" parent="1" vertex="1">
          <mxGeometry x="440" y="1245" width="190" height="30" as="geometry" />
        </mxCell>
        <mxCell id="FaRXy2FFPlZX_t-hhjQD-27" value="" style="endArrow=none;html=1;rounded=0;fontSize=18;" parent="1" edge="1">
          <mxGeometry width="50" height="50" relative="1" as="geometry">
            <mxPoint x="-1520" y="1330" as="sourcePoint" />
            <mxPoint x="1200" y="1340" as="targetPoint" />
          </mxGeometry>
        </mxCell>
        <mxCell id="FaRXy2FFPlZX_t-hhjQD-30" value="entities.Setting" style="swimlane;childLayout=stackLayout;horizontal=1;startSize=30;horizontalStack=0;rounded=1;fontSize=14;fontStyle=0;strokeWidth=2;resizeParent=0;resizeLast=1;shadow=0;dashed=0;align=center;" parent="1" vertex="1">
          <mxGeometry y="1395" width="160" height="120" as="geometry" />
        </mxCell>
        <mxCell id="FaRXy2FFPlZX_t-hhjQD-31" value="+Name string&#xa;+Value string&#xa;+NextValue *string&#xa;+ActivationTime *time.Time" style="align=left;strokeColor=none;fillColor=none;spacingLeft=4;fontSize=12;verticalAlign=top;resizable=0;rotatable=0;part=1;" parent="FaRXy2FFPlZX_t-hhjQD-30" vertex="1">
          <mxGeometry y="30" width="160" height="90" as="geometry" />
        </mxCell>
        <mxCell id="FaRXy2FFPlZX_t-hhjQD-32" value="&lt;font style=&quot;font-size: 25px;&quot;&gt;&lt;b&gt;GET&lt;/b&gt; /job_offers&lt;/font&gt;" style="text;html=1;strokeColor=none;fillColor=none;align=center;verticalAlign=middle;whiteSpace=wrap;rounded=0;fontSize=24;" parent="1" vertex="1">
          <mxGeometry x="440" y="1710" width="200" height="30" as="geometry" />
        </mxCell>
        <mxCell id="FaRXy2FFPlZX_t-hhjQD-35" value="&lt;font style=&quot;font-size: 25px;&quot;&gt;&lt;b&gt;GET&lt;/b&gt; /settings&lt;/font&gt;" style="text;html=1;strokeColor=none;fillColor=none;align=center;verticalAlign=middle;whiteSpace=wrap;rounded=0;fontSize=24;" parent="1" vertex="1">
          <mxGeometry x="440" y="1445" width="190" height="30" as="geometry" />
        </mxCell>
        <mxCell id="FaRXy2FFPlZX_t-hhjQD-37" value="" style="endArrow=none;html=1;rounded=0;fontSize=18;" parent="1" edge="1">
          <mxGeometry width="50" height="50" relative="1" as="geometry">
            <mxPoint x="-1490" y="510" as="sourcePoint" />
            <mxPoint x="1390" y="510" as="targetPoint" />
          </mxGeometry>
        </mxCell>
        <mxCell id="FaRXy2FFPlZX_t-hhjQD-38" value="" style="edgeStyle=entityRelationEdgeStyle;fontSize=12;html=1;endArrow=ERoneToMany;rounded=0;exitX=0.993;exitY=0.413;exitDx=0;exitDy=0;exitPerimeter=0;entryX=1;entryY=0.5;entryDx=0;entryDy=0;" parent="1" source="FaRXy2FFPlZX_t-hhjQD-4" target="FaRXy2FFPlZX_t-hhjQD-6" edge="1">
          <mxGeometry width="100" height="100" relative="1" as="geometry">
            <mxPoint x="-248.04000000000016" y="850.6899999999996" as="sourcePoint" />
            <mxPoint x="-380" y="720" as="targetPoint" />
            <Array as="points">
              <mxPoint x="198.05" y="601.81" />
              <mxPoint x="198.05" y="771.81" />
              <mxPoint x="188.05" y="771.81" />
            </Array>
          </mxGeometry>
        </mxCell>
        <mxCell id="FaRXy2FFPlZX_t-hhjQD-41" value="entities.Voting" style="swimlane;childLayout=stackLayout;horizontal=1;startSize=30;horizontalStack=0;rounded=1;fontSize=14;fontStyle=0;strokeWidth=2;resizeParent=0;resizeLast=1;shadow=0;dashed=0;align=center;" parent="1" vertex="1">
          <mxGeometry y="815" width="310" height="220" as="geometry" />
        </mxCell>
        <mxCell id="FaRXy2FFPlZX_t-hhjQD-42" value="+Creator types.Hash&#xa;+DeployHash types.Hash&#xa;+VotingID uint32&#xa;+InformalVotingID *uint32&#xa;+IsFromal bool&#xa;+HasEnded bool&#xa;+VotingQuorum uint64&#xa;+VotingTime uint64&#xa;+Timestamp time.Time" style="align=left;strokeColor=none;fillColor=none;spacingLeft=4;fontSize=12;verticalAlign=top;resizable=0;rotatable=0;part=1;" parent="FaRXy2FFPlZX_t-hhjQD-41" vertex="1">
          <mxGeometry y="30" width="310" height="190" as="geometry" />
        </mxCell>
        <mxCell id="FaRXy2FFPlZX_t-hhjQD-43" value="entities.Vote" style="swimlane;childLayout=stackLayout;horizontal=1;startSize=30;horizontalStack=0;rounded=1;fontSize=14;fontStyle=0;strokeWidth=2;resizeParent=0;resizeLast=1;shadow=0;dashed=0;align=center;arcSize=22;" parent="1" vertex="1">
          <mxGeometry y="565" width="210" height="170" as="geometry" />
        </mxCell>
        <mxCell id="FaRXy2FFPlZX_t-hhjQD-44" value="+DeployHash types.Hash&#xa;+VotingID uint32&#xa;+Address types.Hash&#xa;+Amount uint64&#xa;+IsInFavour bool&#xa;+IsCanceled bool&#xa;+IsFormal bool&#xa;+Timestamp time.TIme&#xa;" style="align=left;strokeColor=none;fillColor=none;spacingLeft=4;fontSize=12;verticalAlign=top;resizable=0;rotatable=0;part=1;" parent="FaRXy2FFPlZX_t-hhjQD-43" vertex="1">
          <mxGeometry y="30" width="210" height="140" as="geometry" />
        </mxCell>
        <mxCell id="FaRXy2FFPlZX_t-hhjQD-45" value="reputation_change_reason" style="swimlane;childLayout=stackLayout;horizontal=1;startSize=30;horizontalStack=0;rounded=1;fontSize=14;fontStyle=0;strokeWidth=2;resizeParent=0;resizeLast=1;shadow=0;dashed=0;align=center;" parent="1" vertex="1">
          <mxGeometry x="-380" y="45" width="220" height="130" as="geometry" />
        </mxCell>
        <mxCell id="FaRXy2FFPlZX_t-hhjQD-46" value="+id tinyint&#xa;+name varchar(32)" style="align=left;strokeColor=none;fillColor=none;spacingLeft=4;fontSize=12;verticalAlign=top;resizable=0;rotatable=0;part=1;" parent="FaRXy2FFPlZX_t-hhjQD-45" vertex="1">
          <mxGeometry y="30" width="220" height="100" as="geometry" />
        </mxCell>
        <mxCell id="FaRXy2FFPlZX_t-hhjQD-47" value="" style="edgeStyle=entityRelationEdgeStyle;fontSize=12;html=1;endArrow=ERoneToMany;rounded=0;exitX=0;exitY=0.5;exitDx=0;exitDy=0;entryX=1;entryY=0.5;entryDx=0;entryDy=0;" parent="1" source="FaRXy2FFPlZX_t-hhjQD-46" target="FaRXy2FFPlZX_t-hhjQD-2" edge="1">
          <mxGeometry width="100" height="100" relative="1" as="geometry">
            <mxPoint x="-520" y="240" as="sourcePoint" />
            <mxPoint x="-600" y="385" as="targetPoint" />
          </mxGeometry>
        </mxCell>
        <mxCell id="FaRXy2FFPlZX_t-hhjQD-49" value="&lt;font style=&quot;&quot;&gt;&lt;font style=&quot;&quot;&gt;&lt;b style=&quot;&quot;&gt;&lt;font style=&quot;font-size: 25px;&quot;&gt;GET&lt;/font&gt;&lt;/b&gt;&lt;span style=&quot;font-size: 18px;&quot;&gt;&amp;nbsp;&lt;/span&gt;&lt;/font&gt;&lt;font style=&quot;font-size: 25px;&quot;&gt;/votings/{voting_id}/votes&lt;/font&gt;&lt;/font&gt;" style="text;html=1;strokeColor=none;fillColor=none;align=center;verticalAlign=middle;whiteSpace=wrap;rounded=0;fontSize=24;" parent="1" vertex="1">
          <mxGeometry x="440" y="620" width="360" height="30" as="geometry" />
        </mxCell>
        <mxCell id="FaRXy2FFPlZX_t-hhjQD-50" value="&lt;font style=&quot;font-size: 25px;&quot;&gt;&lt;font style=&quot;font-size: 25px;&quot;&gt;&lt;font style=&quot;font-size: 25px;&quot;&gt;&lt;b style=&quot;&quot;&gt;GET&lt;/b&gt;&amp;nbsp;&lt;/font&gt;&lt;/font&gt;&lt;font style=&quot;font-size: 25px;&quot;&gt;/accounts/{account-hash}/votes&lt;/font&gt;&lt;/font&gt;" style="text;html=1;strokeColor=none;fillColor=none;align=center;verticalAlign=middle;whiteSpace=wrap;rounded=0;fontSize=24;" parent="1" vertex="1">
          <mxGeometry x="440" y="840" width="430" height="30" as="geometry" />
        </mxCell>
        <mxCell id="FaRXy2FFPlZX_t-hhjQD-51" value="&lt;font style=&quot;font-size: 25px;&quot;&gt;&lt;font style=&quot;border-color: var(--border-color); font-size: 25px;&quot;&gt;&lt;b style=&quot;&quot;&gt;GET&lt;/b&gt;&amp;nbsp;&lt;/font&gt;&lt;font style=&quot;font-size: 25px;&quot;&gt;/votings&lt;/font&gt;&lt;/font&gt;" style="text;html=1;strokeColor=none;fillColor=none;align=center;verticalAlign=middle;whiteSpace=wrap;rounded=0;fontSize=24;" parent="1" vertex="1">
          <mxGeometry x="440" y="935" width="165" height="30" as="geometry" />
        </mxCell>
        <mxCell id="FaRXy2FFPlZX_t-hhjQD-52" value="&lt;font style=&quot;font-size: 25px;&quot;&gt;&lt;span style=&quot;color: rgb(0, 0, 0); font-family: Helvetica; font-style: normal; font-variant-ligatures: normal; font-variant-caps: normal; letter-spacing: normal; orphans: 2; text-align: center; text-indent: 0px; text-transform: none; widows: 2; word-spacing: 0px; -webkit-text-stroke-width: 0px; background-color: rgb(251, 251, 251); text-decoration-thickness: initial; text-decoration-style: initial; text-decoration-color: initial; float: none; display: inline !important;&quot;&gt;&lt;b style=&quot;&quot;&gt;GET&lt;/b&gt;&lt;/span&gt;&lt;span style=&quot;color: rgb(0, 0, 0); font-family: Helvetica; font-style: normal; font-variant-ligatures: normal; font-variant-caps: normal; font-weight: 400; letter-spacing: normal; orphans: 2; text-align: center; text-indent: 0px; text-transform: none; widows: 2; word-spacing: 0px; -webkit-text-stroke-width: 0px; background-color: rgb(251, 251, 251); text-decoration-thickness: initial; text-decoration-style: initial; text-decoration-color: initial; float: none; display: inline !important;&quot;&gt; /accounts/{account-hash}&lt;/span&gt;&lt;/font&gt;" style="text;whiteSpace=wrap;html=1;fontSize=18;" parent="1" vertex="1">
          <mxGeometry x="440" y="1150" width="400" height="50" as="geometry" />
        </mxCell>
        <mxCell id="FaRXy2FFPlZX_t-hhjQD-53" value="entities.ReputationChange" style="swimlane;childLayout=stackLayout;horizontal=1;startSize=30;horizontalStack=0;rounded=1;fontSize=14;fontStyle=0;strokeWidth=2;resizeParent=0;resizeLast=1;shadow=0;dashed=0;align=center;arcSize=22;" parent="1" vertex="1">
          <mxGeometry y="20" width="240" height="150" as="geometry" />
        </mxCell>
        <mxCell id="FaRXy2FFPlZX_t-hhjQD-54" value="+Address types.Hash&#xa;+ContractPackageHash types.Hash&#xa;+VoringID *uint32&#xa;+Amount int64&#xa;+DeployHash types.Hash&#xa;+Reason ReputationChangeReason&#xa;+Timestamp time.TIme&#xa;" style="align=left;strokeColor=none;fillColor=none;spacingLeft=4;fontSize=12;verticalAlign=top;resizable=0;rotatable=0;part=1;" parent="FaRXy2FFPlZX_t-hhjQD-53" vertex="1">
          <mxGeometry y="30" width="240" height="120" as="geometry" />
        </mxCell>
        <mxCell id="FaRXy2FFPlZX_t-hhjQD-60" value="&lt;font style=&quot;font-size: 25px;&quot;&gt;&lt;font style=&quot;font-size: 25px;&quot;&gt;&lt;font style=&quot;font-size: 25px;&quot;&gt;&lt;b style=&quot;&quot;&gt;GET&lt;/b&gt;&amp;nbsp;&lt;/font&gt;&lt;/font&gt;&lt;/font&gt;/accounts/{address}/total-reputation-snapshots" style="text;html=1;strokeColor=none;fillColor=none;align=center;verticalAlign=middle;whiteSpace=wrap;rounded=0;fontSize=24;" parent="1" vertex="1">
          <mxGeometry x="440" y="230" width="575" height="30" as="geometry" />
        </mxCell>
        <mxCell id="FaRXy2FFPlZX_t-hhjQD-62" value="voting_type" style="swimlane;childLayout=stackLayout;horizontal=1;startSize=30;horizontalStack=0;rounded=1;fontSize=14;fontStyle=0;strokeWidth=2;resizeParent=0;resizeLast=1;shadow=0;dashed=0;align=center;" parent="1" vertex="1">
          <mxGeometry x="-350" y="925" width="220" height="130" as="geometry" />
        </mxCell>
        <mxCell id="FaRXy2FFPlZX_t-hhjQD-63" value="+id tinyint&#xa;+name varchar(32)" style="align=left;strokeColor=none;fillColor=none;spacingLeft=4;fontSize=12;verticalAlign=top;resizable=0;rotatable=0;part=1;" parent="FaRXy2FFPlZX_t-hhjQD-62" vertex="1">
          <mxGeometry y="30" width="220" height="100" as="geometry" />
        </mxCell>
        <mxCell id="FaRXy2FFPlZX_t-hhjQD-64" value="" style="edgeStyle=entityRelationEdgeStyle;fontSize=12;html=1;endArrow=ERoneToMany;rounded=0;exitX=0;exitY=0.5;exitDx=0;exitDy=0;entryX=1;entryY=0.5;entryDx=0;entryDy=0;" parent="1" source="FaRXy2FFPlZX_t-hhjQD-63" target="FaRXy2FFPlZX_t-hhjQD-4" edge="1">
          <mxGeometry width="100" height="100" relative="1" as="geometry">
            <mxPoint x="-510" y="1204" as="sourcePoint" />
            <mxPoint x="-400" y="1141.5" as="targetPoint" />
          </mxGeometry>
        </mxCell>
        <mxCell id="O9q-SJ7GEx1dm_CC4fe2-1" value="&lt;font style=&quot;font-size: 30px;&quot;&gt;&lt;b&gt;Contract Level Events&lt;/b&gt;&lt;/font&gt;" style="text;html=1;strokeColor=none;fillColor=none;align=center;verticalAlign=middle;whiteSpace=wrap;rounded=0;" parent="1" vertex="1">
          <mxGeometry x="-1110" y="-70" width="440" height="20" as="geometry" />
        </mxCell>
        <mxCell id="O9q-SJ7GEx1dm_CC4fe2-2" value="" style="endArrow=none;dashed=1;html=1;dashPattern=1 3;strokeWidth=2;rounded=0;fontSize=24;" parent="1" edge="1">
          <mxGeometry width="50" height="50" relative="1" as="geometry">
            <mxPoint x="-680" y="2450" as="sourcePoint" />
            <mxPoint x="-670" y="-1" as="targetPoint" />
          </mxGeometry>
        </mxCell>
        <mxCell id="8H2uUOVwHWf8vIkHYVnv-1" value="entities.TotalReputationSnaphot" style="swimlane;childLayout=stackLayout;horizontal=1;startSize=30;horizontalStack=0;rounded=1;fontSize=14;fontStyle=0;strokeWidth=2;resizeParent=0;resizeLast=1;shadow=0;dashed=0;align=center;arcSize=22;" vertex="1" parent="1">
          <mxGeometry y="280" width="250" height="180" as="geometry" />
        </mxCell>
        <mxCell id="8H2uUOVwHWf8vIkHYVnv-2" value="+Address types.Hash&#xa;+TotalLiquidReputation uint64&#xa;+TotalStakedReputation uint64&#xa;+VotingLostReputation uint64&#xa;+VotingEarnedReputation uint64&#xa;+VoringID *uint32&#xa;+DeployHash types.Hash&#xa;+Reason ReputationChangeReason&#xa;+Timestamp time.TIme&#xa;" style="align=left;strokeColor=none;fillColor=none;spacingLeft=4;fontSize=12;verticalAlign=top;resizable=0;rotatable=0;part=1;" vertex="1" parent="8H2uUOVwHWf8vIkHYVnv-1">
          <mxGeometry y="30" width="250" height="150" as="geometry" />
        </mxCell>
        <mxCell id="8H2uUOVwHWf8vIkHYVnv-5" value="total_reputation_snapshots" style="swimlane;childLayout=stackLayout;horizontal=1;startSize=30;horizontalStack=0;rounded=1;fontSize=14;fontStyle=0;strokeWidth=2;resizeParent=0;resizeLast=1;shadow=0;dashed=0;align=center;" vertex="1" parent="1">
          <mxGeometry x="-633" y="280" width="200" height="200" as="geometry" />
        </mxCell>
        <mxCell id="8H2uUOVwHWf8vIkHYVnv-6" value="+address binary(32)&#xa;+total_liquid_reputation bigint&#xa;+total_staked_reputation bigint&#xa;+voting_lost_reputation bigint&#xa;+voting_earned_reputation bigint&#xa;+voting_id int unsigned&#xa;+deploy_hash binary(32)&#xa;+reason tinyint unsugned&#xa;+timestamp datatime&#xa;" style="align=left;strokeColor=none;fillColor=none;spacingLeft=4;fontSize=12;verticalAlign=top;resizable=0;rotatable=0;part=1;" vertex="1" parent="8H2uUOVwHWf8vIkHYVnv-5">
          <mxGeometry y="30" width="200" height="170" as="geometry" />
        </mxCell>
        <mxCell id="8H2uUOVwHWf8vIkHYVnv-10" value="" style="endArrow=none;html=1;rounded=0;fontSize=18;" edge="1" parent="1">
          <mxGeometry width="50" height="50" relative="1" as="geometry">
            <mxPoint x="-1580" y="1095" as="sourcePoint" />
            <mxPoint x="1220" y="1094.5" as="targetPoint" />
          </mxGeometry>
        </mxCell>
        <mxCell id="8H2uUOVwHWf8vIkHYVnv-12" value="" style="endArrow=none;html=1;rounded=0;fontSize=18;" edge="1" parent="1">
          <mxGeometry width="50" height="50" relative="1" as="geometry">
            <mxPoint x="-1500" y="1590" as="sourcePoint" />
            <mxPoint x="1200" y="1600" as="targetPoint" />
          </mxGeometry>
        </mxCell>
        <mxCell id="8H2uUOVwHWf8vIkHYVnv-14" value="entities.Bid" style="swimlane;childLayout=stackLayout;horizontal=1;startSize=30;horizontalStack=0;rounded=1;fontSize=14;fontStyle=0;strokeWidth=2;resizeParent=0;resizeLast=1;shadow=0;dashed=0;align=center;" vertex="1" parent="1">
          <mxGeometry y="1912" width="240" height="200" as="geometry" />
        </mxCell>
        <mxCell id="8H2uUOVwHWf8vIkHYVnv-15" value="+JobOfferID uint32&#xa;+BidID uint32&#xa;+Worker types.Hash&#xa;+DeployHash types.Hash&#xa;+Onboard bool&#xa;+ProposedTimeFrame uint64&#xa;+ProposedPayment uint64&#xa;+PickedByJobPoster bool&#xa;+ReputationStake *uint64&#xa;+CSPRStake *uint64&#xa;+Timestamp time.Time" style="align=left;strokeColor=none;fillColor=none;spacingLeft=4;fontSize=12;verticalAlign=top;resizable=0;rotatable=0;part=1;" vertex="1" parent="8H2uUOVwHWf8vIkHYVnv-14">
          <mxGeometry y="30" width="240" height="170" as="geometry" />
        </mxCell>
        <mxCell id="8H2uUOVwHWf8vIkHYVnv-19" value="entities.Job" style="swimlane;childLayout=stackLayout;horizontal=1;startSize=30;horizontalStack=0;rounded=1;fontSize=14;fontStyle=0;strokeWidth=2;resizeParent=0;resizeLast=1;shadow=0;dashed=0;align=center;" vertex="1" parent="1">
          <mxGeometry y="2158" width="210" height="180" as="geometry" />
        </mxCell>
        <mxCell id="8H2uUOVwHWf8vIkHYVnv-20" value="+BidID uint32&#xa;+JobPoster types.Hash&#xa;+Worker types.Hash&#xa;+Caller *types.Hash&#xa;+Result *string&#xa;+DeployHash types.Hash&#xa;+JobStatusID byte&#xa;+FinishTime uint64&#xa;+Timestamp time.Time" style="align=left;strokeColor=none;fillColor=none;spacingLeft=4;fontSize=12;verticalAlign=top;resizable=0;rotatable=0;part=1;" vertex="1" parent="8H2uUOVwHWf8vIkHYVnv-19">
          <mxGeometry y="30" width="210" height="150" as="geometry" />
        </mxCell>
        <mxCell id="8H2uUOVwHWf8vIkHYVnv-21" value="entities.JobOffer" style="swimlane;childLayout=stackLayout;horizontal=1;startSize=30;horizontalStack=0;rounded=1;fontSize=14;fontStyle=0;strokeWidth=2;resizeParent=0;resizeLast=1;shadow=0;dashed=0;align=center;" vertex="1" parent="1">
          <mxGeometry y="1660" width="270" height="150" as="geometry" />
        </mxCell>
        <mxCell id="8H2uUOVwHWf8vIkHYVnv-22" value="+JobOfferID uint32&#xa;+JobPoster types.Hash&#xa;+DeployHash types.Hash&#xa;+MaxBudget uint64&#xa;+AuctionTypeID byte&#xa;+ExpectedTimeFrame uint64&#xa;+Timestamp time.Time" style="align=left;strokeColor=none;fillColor=none;spacingLeft=4;fontSize=12;verticalAlign=top;resizable=0;rotatable=0;part=1;" vertex="1" parent="8H2uUOVwHWf8vIkHYVnv-21">
          <mxGeometry y="30" width="270" height="120" as="geometry" />
        </mxCell>
        <mxCell id="8H2uUOVwHWf8vIkHYVnv-24" value="&lt;font style=&quot;font-size: 25px;&quot;&gt;&lt;b&gt;GET&lt;/b&gt;&amp;nbsp;&lt;/font&gt;/job-offers/{job_offer_id}/bids" style="text;html=1;strokeColor=none;fillColor=none;align=center;verticalAlign=middle;whiteSpace=wrap;rounded=0;fontSize=24;" vertex="1" parent="1">
          <mxGeometry x="440" y="1912" width="380" height="30" as="geometry" />
        </mxCell>
        <mxCell id="8H2uUOVwHWf8vIkHYVnv-25" value="&lt;font style=&quot;font-size: 25px;&quot;&gt;&lt;b&gt;GET&lt;/b&gt;&amp;nbsp;&lt;/font&gt;/bids/{bid_id}/job" style="text;html=1;strokeColor=none;fillColor=none;align=center;verticalAlign=middle;whiteSpace=wrap;rounded=0;fontSize=24;" vertex="1" parent="1">
          <mxGeometry x="440" y="2240" width="250" height="30" as="geometry" />
        </mxCell>
        <mxCell id="8H2uUOVwHWf8vIkHYVnv-26" value="&lt;font style=&quot;font-size: 25px;&quot;&gt;&lt;b&gt;GET&lt;/b&gt;&amp;nbsp;&lt;/font&gt;/job-statuses" style="text;html=1;strokeColor=none;fillColor=none;align=center;verticalAlign=middle;whiteSpace=wrap;rounded=0;fontSize=24;" vertex="1" parent="1">
          <mxGeometry x="440" y="2169" width="210" height="30" as="geometry" />
        </mxCell>
        <mxCell id="8H2uUOVwHWf8vIkHYVnv-27" value="job_offers" style="swimlane;childLayout=stackLayout;horizontal=1;startSize=30;horizontalStack=0;rounded=1;fontSize=14;fontStyle=0;strokeWidth=2;resizeParent=0;resizeLast=1;shadow=0;dashed=0;align=center;" vertex="1" parent="1">
          <mxGeometry x="-640" y="1620" width="253" height="156" as="geometry" />
        </mxCell>
        <mxCell id="8H2uUOVwHWf8vIkHYVnv-28" value="+job_offer_id int unsigned PK&#xa;+deploy_hash binary(32) PK&#xa;+job_poster binary(32)&#xa;+max_budget bigint unsigned&#xa;+auction_type_id tinyint unsigned&#xa;+expected_time_frame int unsigned&#xa;+timestamp datatime&#xa;" style="align=left;strokeColor=none;fillColor=none;spacingLeft=4;fontSize=12;verticalAlign=top;resizable=0;rotatable=0;part=1;" vertex="1" parent="8H2uUOVwHWf8vIkHYVnv-27">
          <mxGeometry y="30" width="253" height="126" as="geometry" />
        </mxCell>
        <mxCell id="8H2uUOVwHWf8vIkHYVnv-30" value="bids" style="swimlane;childLayout=stackLayout;horizontal=1;startSize=30;horizontalStack=0;rounded=1;fontSize=14;fontStyle=0;strokeWidth=2;resizeParent=0;resizeLast=1;shadow=0;dashed=0;align=center;" vertex="1" parent="1">
          <mxGeometry x="-633" y="1856" width="253" height="216" as="geometry" />
        </mxCell>
        <mxCell id="8H2uUOVwHWf8vIkHYVnv-31" value="+job_offer_id int unsigned PK&#xa;+deploy_hash binary(32) PK&#xa;+bid_id int unsigned&#xa;+worker binary(32)&#xa;+onboard tinyint unsigned&#xa;+proposed_time_frame int unsigned&#xa;+proposed_payment int unsigned&#xa;+picked_by_job_poster tinyint unsigned&#xa;+reputation_stake int unsigned&#xa;+cspr_stake int_unsigned&#xa;+timestamp datatime" style="align=left;strokeColor=none;fillColor=none;spacingLeft=4;fontSize=12;verticalAlign=top;resizable=0;rotatable=0;part=1;" vertex="1" parent="8H2uUOVwHWf8vIkHYVnv-30">
          <mxGeometry y="30" width="253" height="186" as="geometry" />
        </mxCell>
        <mxCell id="8H2uUOVwHWf8vIkHYVnv-36" value="" style="edgeStyle=entityRelationEdgeStyle;fontSize=12;html=1;endArrow=ERoneToMany;rounded=0;exitX=1.011;exitY=0.199;exitDx=0;exitDy=0;exitPerimeter=0;" edge="1" parent="1" source="8H2uUOVwHWf8vIkHYVnv-28" target="8H2uUOVwHWf8vIkHYVnv-31">
          <mxGeometry width="100" height="100" relative="1" as="geometry">
            <mxPoint x="-390" y="2584" as="sourcePoint" />
            <mxPoint x="-390" y="2286" as="targetPoint" />
            <Array as="points">
              <mxPoint x="-300" y="2341" />
              <mxPoint x="-300" y="2511" />
              <mxPoint x="-310" y="2511" />
            </Array>
          </mxGeometry>
        </mxCell>
        <mxCell id="8H2uUOVwHWf8vIkHYVnv-37" value="jobs" style="swimlane;childLayout=stackLayout;horizontal=1;startSize=30;horizontalStack=0;rounded=1;fontSize=14;fontStyle=0;strokeWidth=2;resizeParent=0;resizeLast=1;shadow=0;dashed=0;align=center;" vertex="1" parent="1">
          <mxGeometry x="-633" y="2134" width="281.5" height="210" as="geometry" />
        </mxCell>
        <mxCell id="8H2uUOVwHWf8vIkHYVnv-38" value="+bid_id int unsigned PK&#xa;+deploy_hash binary(32) PK&#xa;+job_id int unsigned&#xa;+job_status_id tinyint unsigned&#xa;+job_poster binary(32)&#xa;+worker binary(32)&#xa;+caller binary(32)&#xa;+result text&#xa;+finish_time int unsigned&#xa;+timestamp datatime&#xa;" style="align=left;strokeColor=none;fillColor=none;spacingLeft=4;fontSize=12;verticalAlign=top;resizable=0;rotatable=0;part=1;" vertex="1" parent="8H2uUOVwHWf8vIkHYVnv-37">
          <mxGeometry y="30" width="281.5" height="180" as="geometry" />
        </mxCell>
        <mxCell id="8H2uUOVwHWf8vIkHYVnv-39" value="" style="edgeStyle=entityRelationEdgeStyle;fontSize=12;html=1;endArrow=ERmandOne;startArrow=ERmandOne;rounded=0;entryX=1.005;entryY=0.604;entryDx=0;entryDy=0;entryPerimeter=0;" edge="1" parent="1" target="8H2uUOVwHWf8vIkHYVnv-31">
          <mxGeometry width="100" height="100" relative="1" as="geometry">
            <mxPoint x="-350" y="2256" as="sourcePoint" />
            <mxPoint x="-270" y="2026" as="targetPoint" />
          </mxGeometry>
        </mxCell>
        <mxCell id="8H2uUOVwHWf8vIkHYVnv-44" value="BurnEvent" style="swimlane;childLayout=stackLayout;horizontal=1;startSize=30;horizontalStack=0;rounded=1;fontSize=14;fontStyle=0;strokeWidth=2;resizeParent=0;resizeLast=1;shadow=0;dashed=0;align=center;" vertex="1" parent="1">
          <mxGeometry x="-960" y="10" width="220" height="80" as="geometry" />
        </mxCell>
        <mxCell id="8H2uUOVwHWf8vIkHYVnv-45" value="+Address types.Address&#xa;+Amount clvalue.Uint512" style="align=left;strokeColor=none;fillColor=none;spacingLeft=4;fontSize=12;verticalAlign=top;resizable=0;rotatable=0;part=1;" vertex="1" parent="8H2uUOVwHWf8vIkHYVnv-44">
          <mxGeometry y="30" width="220" height="50" as="geometry" />
        </mxCell>
        <mxCell id="8H2uUOVwHWf8vIkHYVnv-46" value="MIntEvent" style="swimlane;childLayout=stackLayout;horizontal=1;startSize=30;horizontalStack=0;rounded=1;fontSize=14;fontStyle=0;strokeWidth=2;resizeParent=0;resizeLast=1;shadow=0;dashed=0;align=center;" vertex="1" parent="1">
          <mxGeometry x="-1230" y="10" width="220" height="80" as="geometry" />
        </mxCell>
        <mxCell id="8H2uUOVwHWf8vIkHYVnv-47" value="+Address types.Address&#xa;+Amount clvalue.Uint512" style="align=left;strokeColor=none;fillColor=none;spacingLeft=4;fontSize=12;verticalAlign=top;resizable=0;rotatable=0;part=1;" vertex="1" parent="8H2uUOVwHWf8vIkHYVnv-46">
          <mxGeometry y="30" width="220" height="50" as="geometry" />
        </mxCell>
        <mxCell id="8H2uUOVwHWf8vIkHYVnv-48" value="StakeEvent" style="swimlane;childLayout=stackLayout;horizontal=1;startSize=30;horizontalStack=0;rounded=1;fontSize=14;fontStyle=0;strokeWidth=2;resizeParent=0;resizeLast=1;shadow=0;dashed=0;align=center;" vertex="1" parent="1">
          <mxGeometry x="-1500" y="10" width="220" height="100" as="geometry" />
        </mxCell>
        <mxCell id="8H2uUOVwHWf8vIkHYVnv-49" value="+BidID uint32&#xa;+Worker types.Hash&#xa;+Amount clvalue.Uint512" style="align=left;strokeColor=none;fillColor=none;spacingLeft=4;fontSize=12;verticalAlign=top;resizable=0;rotatable=0;part=1;" vertex="1" parent="8H2uUOVwHWf8vIkHYVnv-48">
          <mxGeometry y="30" width="220" height="70" as="geometry" />
        </mxCell>
        <mxCell id="8H2uUOVwHWf8vIkHYVnv-50" value="UnstakeEvent" style="swimlane;childLayout=stackLayout;horizontal=1;startSize=30;horizontalStack=0;rounded=1;fontSize=14;fontStyle=0;strokeWidth=2;resizeParent=0;resizeLast=1;shadow=0;dashed=0;align=center;" vertex="1" parent="1">
          <mxGeometry x="-1780" y="10" width="230" height="100" as="geometry" />
        </mxCell>
        <mxCell id="8H2uUOVwHWf8vIkHYVnv-51" value="+BidID uint32&#xa;+Worker types.Hash&#xa;+Amount clvalue.Uint512" style="align=left;strokeColor=none;fillColor=none;spacingLeft=4;fontSize=12;verticalAlign=top;resizable=0;rotatable=0;part=1;" vertex="1" parent="8H2uUOVwHWf8vIkHYVnv-50">
          <mxGeometry y="30" width="230" height="70" as="geometry" />
        </mxCell>
        <mxCell id="8H2uUOVwHWf8vIkHYVnv-53" value="" style="shape=curlyBracket;whiteSpace=wrap;html=1;rounded=1;labelPosition=left;verticalLabelPosition=middle;align=right;verticalAlign=middle;" vertex="1" parent="1">
          <mxGeometry x="-1870" y="220" width="20" height="260" as="geometry" />
        </mxCell>
        <mxCell id="8H2uUOVwHWf8vIkHYVnv-54" value="Reputation Contract" style="text;strokeColor=none;fillColor=none;html=1;fontSize=24;fontStyle=1;verticalAlign=middle;align=center;" vertex="1" parent="1">
          <mxGeometry x="-2070" y="30" width="100" height="40" as="geometry" />
        </mxCell>
        <mxCell id="8H2uUOVwHWf8vIkHYVnv-55" value="BallotCastEvent" style="swimlane;childLayout=stackLayout;horizontal=1;startSize=30;horizontalStack=0;rounded=1;fontSize=14;fontStyle=0;strokeWidth=2;resizeParent=0;resizeLast=1;shadow=0;dashed=0;align=center;" vertex="1" parent="1">
          <mxGeometry x="-970" y="220" width="240" height="120" as="geometry" />
        </mxCell>
        <mxCell id="8H2uUOVwHWf8vIkHYVnv-56" value="+Voter types.Address&#xa;+VotingType uint8&#xa;+Choice types.Choice&#xa;+VotingID uint32&#xa;+Stake clvalue.Uint512" style="align=left;strokeColor=none;fillColor=none;spacingLeft=4;fontSize=12;verticalAlign=top;resizable=0;rotatable=0;part=1;" vertex="1" parent="8H2uUOVwHWf8vIkHYVnv-55">
          <mxGeometry y="30" width="240" height="90" as="geometry" />
        </mxCell>
        <mxCell id="8H2uUOVwHWf8vIkHYVnv-57" value="VotingCanceledEvent" style="swimlane;childLayout=stackLayout;horizontal=1;startSize=30;horizontalStack=0;rounded=1;fontSize=14;fontStyle=0;strokeWidth=2;resizeParent=0;resizeLast=1;shadow=0;dashed=0;align=center;" vertex="1" parent="1">
          <mxGeometry x="-1300" y="220" width="270" height="120" as="geometry" />
        </mxCell>
        <mxCell id="8H2uUOVwHWf8vIkHYVnv-58" value="+VotingID uint32&#xa;+VotingType uint8&#xa;+Unstakes map[types.Tuple2]clvalue.Uint512" style="align=left;strokeColor=none;fillColor=none;spacingLeft=4;fontSize=12;verticalAlign=top;resizable=0;rotatable=0;part=1;" vertex="1" parent="8H2uUOVwHWf8vIkHYVnv-57">
          <mxGeometry y="30" width="270" height="90" as="geometry" />
        </mxCell>
        <mxCell id="8H2uUOVwHWf8vIkHYVnv-59" value="VotingEndedEvent" style="swimlane;childLayout=stackLayout;horizontal=1;startSize=30;horizontalStack=0;rounded=1;fontSize=14;fontStyle=0;strokeWidth=2;resizeParent=0;resizeLast=1;shadow=0;dashed=0;align=center;" vertex="1" parent="1">
          <mxGeometry x="-1610" y="220" width="280" height="240" as="geometry" />
        </mxCell>
        <mxCell id="8H2uUOVwHWf8vIkHYVnv-60" value="+VotingID uint32&#xa;+VotingType uint8&#xa;+VotingResult uint8&#xa;+StakeInFavour clvalue.UInt512&#xa;+StakeAgainst clvalue.UInt512&#xa;+UnboundStakeInFavour clvalue.UInt512&#xa;+UnboundStakeAgainst clvalue.UInt512&#xa;+VotesInFavour uint32&#xa;+VotesAgainst uint32&#xa;+Unstakes map[types.Tuple2]clvalue.UInt512&#xa;+Stakes map[types.Tuple2]clvalue.UInt512&#xa;+Burns map[types.Tuple2]clvalue.UInt512&#xa;+Mints map[types.Tuple2]clvalue.UInt512&#xa;" style="align=left;strokeColor=none;fillColor=none;spacingLeft=4;fontSize=12;verticalAlign=top;resizable=0;rotatable=0;part=1;" vertex="1" parent="8H2uUOVwHWf8vIkHYVnv-59">
          <mxGeometry y="30" width="280" height="210" as="geometry" />
        </mxCell>
        <mxCell id="8H2uUOVwHWf8vIkHYVnv-61" value="" style="shape=curlyBracket;whiteSpace=wrap;html=1;rounded=1;labelPosition=left;verticalLabelPosition=middle;align=right;verticalAlign=middle;" vertex="1" parent="1">
          <mxGeometry x="-1870" y="10" width="20" height="120" as="geometry" />
        </mxCell>
        <mxCell id="8H2uUOVwHWf8vIkHYVnv-62" value="For all voter contracts" style="text;strokeColor=none;fillColor=none;html=1;fontSize=24;fontStyle=1;verticalAlign=middle;align=center;" vertex="1" parent="1">
          <mxGeometry x="-2110" y="340" width="100" height="40" as="geometry" />
        </mxCell>
        <mxCell id="8H2uUOVwHWf8vIkHYVnv-65" value="TransferEvent" style="swimlane;childLayout=stackLayout;horizontal=1;startSize=30;horizontalStack=0;rounded=1;fontSize=14;fontStyle=0;strokeWidth=2;resizeParent=0;resizeLast=1;shadow=0;dashed=0;align=center;" vertex="1" parent="1">
          <mxGeometry x="-975" y="1110" width="250" height="90" as="geometry" />
        </mxCell>
        <mxCell id="8H2uUOVwHWf8vIkHYVnv-66" value="+From *types.Address&#xa;+To *types.Address&#xa;+TokenID clvalue.Uint512" style="align=left;strokeColor=none;fillColor=none;spacingLeft=4;fontSize=12;verticalAlign=top;resizable=0;rotatable=0;part=1;" vertex="1" parent="8H2uUOVwHWf8vIkHYVnv-65">
          <mxGeometry y="30" width="250" height="60" as="geometry" />
        </mxCell>
        <mxCell id="8H2uUOVwHWf8vIkHYVnv-67" value="TransferEvent" style="swimlane;childLayout=stackLayout;horizontal=1;startSize=30;horizontalStack=0;rounded=1;fontSize=14;fontStyle=0;strokeWidth=2;resizeParent=0;resizeLast=1;shadow=0;dashed=0;align=center;" vertex="1" parent="1">
          <mxGeometry x="-975" y="1220" width="250" height="90" as="geometry" />
        </mxCell>
        <mxCell id="8H2uUOVwHWf8vIkHYVnv-68" value="+From *types.Address&#xa;+To *types.Address&#xa;+TokenID clvalue.Uint512" style="align=left;strokeColor=none;fillColor=none;spacingLeft=4;fontSize=12;verticalAlign=top;resizable=0;rotatable=0;part=1;" vertex="1" parent="8H2uUOVwHWf8vIkHYVnv-67">
          <mxGeometry y="30" width="250" height="60" as="geometry" />
        </mxCell>
        <mxCell id="8H2uUOVwHWf8vIkHYVnv-69" value="" style="shape=curlyBracket;whiteSpace=wrap;html=1;rounded=1;labelPosition=left;verticalLabelPosition=middle;align=right;verticalAlign=middle;" vertex="1" parent="1">
          <mxGeometry x="-1140" y="1100" width="20" height="100" as="geometry" />
        </mxCell>
        <mxCell id="8H2uUOVwHWf8vIkHYVnv-70" value="" style="shape=curlyBracket;whiteSpace=wrap;html=1;rounded=1;labelPosition=left;verticalLabelPosition=middle;align=right;verticalAlign=middle;" vertex="1" parent="1">
          <mxGeometry x="-1140" y="1217.5" width="20" height="95" as="geometry" />
        </mxCell>
        <mxCell id="8H2uUOVwHWf8vIkHYVnv-71" value="KycNftContract" style="text;strokeColor=none;fillColor=none;html=1;fontSize=24;fontStyle=1;verticalAlign=middle;align=center;" vertex="1" parent="1">
          <mxGeometry x="-1359" y="1135" width="100" height="40" as="geometry" />
        </mxCell>
        <mxCell id="8H2uUOVwHWf8vIkHYVnv-73" value="VaNftContract" style="text;strokeColor=none;fillColor=none;html=1;fontSize=24;fontStyle=1;verticalAlign=middle;align=center;" vertex="1" parent="1">
          <mxGeometry x="-1370" y="1235" width="100" height="40" as="geometry" />
        </mxCell>
        <mxCell id="8H2uUOVwHWf8vIkHYVnv-74" value="" style="edgeStyle=orthogonalEdgeStyle;rounded=0;orthogonalLoop=1;jettySize=auto;html=1;" edge="1" parent="1" source="8H2uUOVwHWf8vIkHYVnv-68" target="8H2uUOVwHWf8vIkHYVnv-66">
          <mxGeometry relative="1" as="geometry" />
        </mxCell>
        <mxCell id="8H2uUOVwHWf8vIkHYVnv-75" value="ValueUpdatedEvent" style="swimlane;childLayout=stackLayout;horizontal=1;startSize=30;horizontalStack=0;rounded=1;fontSize=14;fontStyle=0;strokeWidth=2;resizeParent=0;resizeLast=1;shadow=0;dashed=0;align=center;" vertex="1" parent="1">
          <mxGeometry x="-990" y="1415" width="250" height="90" as="geometry" />
        </mxCell>
        <mxCell id="8H2uUOVwHWf8vIkHYVnv-76" value="+Key strimg&#xa;+Value types.RecordValue&#xa;+ActivationTime *uint64" style="align=left;strokeColor=none;fillColor=none;spacingLeft=4;fontSize=12;verticalAlign=top;resizable=0;rotatable=0;part=1;" vertex="1" parent="8H2uUOVwHWf8vIkHYVnv-75">
          <mxGeometry y="30" width="250" height="60" as="geometry" />
        </mxCell>
        <mxCell id="8H2uUOVwHWf8vIkHYVnv-77" value="" style="shape=curlyBracket;whiteSpace=wrap;html=1;rounded=1;labelPosition=left;verticalLabelPosition=middle;align=right;verticalAlign=middle;" vertex="1" parent="1">
          <mxGeometry x="-1870" y="1679" width="20" height="751" as="geometry" />
        </mxCell>
        <mxCell id="8H2uUOVwHWf8vIkHYVnv-78" value="BidEscrowRepositoryContract" style="text;strokeColor=none;fillColor=none;html=1;fontSize=24;fontStyle=1;verticalAlign=middle;align=center;" vertex="1" parent="1">
          <mxGeometry x="-2150" y="1967" width="100" height="40" as="geometry" />
        </mxCell>
        <mxCell id="8H2uUOVwHWf8vIkHYVnv-79" value="JobOfferCreatedEvent" style="swimlane;childLayout=stackLayout;horizontal=1;startSize=30;horizontalStack=0;rounded=1;fontSize=14;fontStyle=0;strokeWidth=2;resizeParent=0;resizeLast=1;shadow=0;dashed=0;align=center;" vertex="1" parent="1">
          <mxGeometry x="-975" y="1620" width="260" height="110" as="geometry" />
        </mxCell>
        <mxCell id="8H2uUOVwHWf8vIkHYVnv-80" value="+JobOfferID uint32&#xa;+JobPoster types.Hash&#xa;+MaxBudget clvalue.Uint512&#xa;+ExpectedTimeFrame uint64" style="align=left;strokeColor=none;fillColor=none;spacingLeft=4;fontSize=12;verticalAlign=top;resizable=0;rotatable=0;part=1;" vertex="1" parent="8H2uUOVwHWf8vIkHYVnv-79">
          <mxGeometry y="30" width="260" height="80" as="geometry" />
        </mxCell>
        <mxCell id="8H2uUOVwHWf8vIkHYVnv-81" value="BidSubmittedEvent" style="swimlane;childLayout=stackLayout;horizontal=1;startSize=30;horizontalStack=0;rounded=1;fontSize=14;fontStyle=0;strokeWidth=2;resizeParent=0;resizeLast=1;shadow=0;dashed=0;align=center;" vertex="1" parent="1">
          <mxGeometry x="-975" y="1856" width="260" height="180" as="geometry" />
        </mxCell>
        <mxCell id="8H2uUOVwHWf8vIkHYVnv-82" value="+JobOfferID uint32&#xa;+BidID uint32&#xa;+Worker types.Hash&#xa;+Onboard bool&#xa;+ProposedTimeFrame uint64&#xa;+ProposedPayment clvalue.UInt512&#xa;+ReputationStake *clvalue.UInt512&#xa;+CSPRStake *clvalue.UInt512" style="align=left;strokeColor=none;fillColor=none;spacingLeft=4;fontSize=12;verticalAlign=top;resizable=0;rotatable=0;part=1;" vertex="1" parent="8H2uUOVwHWf8vIkHYVnv-81">
          <mxGeometry y="30" width="260" height="150" as="geometry" />
        </mxCell>
        <mxCell id="8H2uUOVwHWf8vIkHYVnv-83" value="JobCreatedEvent" style="swimlane;childLayout=stackLayout;horizontal=1;startSize=30;horizontalStack=0;rounded=1;fontSize=14;fontStyle=0;strokeWidth=2;resizeParent=0;resizeLast=1;shadow=0;dashed=0;align=center;" vertex="1" parent="1">
          <mxGeometry x="-950" y="2134" width="250" height="120" as="geometry" />
        </mxCell>
        <mxCell id="8H2uUOVwHWf8vIkHYVnv-84" value="+BidID uint32&#xa;+JobPoster types.Hash&#xa;+Worker types.Hash&#xa;+FinishTime uint64&#xa;+Payment clvalue.UInt512" style="align=left;strokeColor=none;fillColor=none;spacingLeft=4;fontSize=12;verticalAlign=top;resizable=0;rotatable=0;part=1;" vertex="1" parent="8H2uUOVwHWf8vIkHYVnv-83">
          <mxGeometry y="30" width="250" height="90" as="geometry" />
        </mxCell>
        <mxCell id="8H2uUOVwHWf8vIkHYVnv-85" value="JobSubmittedEvent" style="swimlane;childLayout=stackLayout;horizontal=1;startSize=30;horizontalStack=0;rounded=1;fontSize=14;fontStyle=0;strokeWidth=2;resizeParent=0;resizeLast=1;shadow=0;dashed=0;align=center;" vertex="1" parent="1">
          <mxGeometry x="-1230" y="2134" width="250" height="100" as="geometry" />
        </mxCell>
        <mxCell id="8H2uUOVwHWf8vIkHYVnv-86" value="+BidID uint32&#xa;+JobPoster types.Hash&#xa;+Worker types.Hash&#xa;+Result string" style="align=left;strokeColor=none;fillColor=none;spacingLeft=4;fontSize=12;verticalAlign=top;resizable=0;rotatable=0;part=1;" vertex="1" parent="8H2uUOVwHWf8vIkHYVnv-85">
          <mxGeometry y="30" width="250" height="70" as="geometry" />
        </mxCell>
        <mxCell id="8H2uUOVwHWf8vIkHYVnv-87" value="JobCancelledEvent" style="swimlane;childLayout=stackLayout;horizontal=1;startSize=30;horizontalStack=0;rounded=1;fontSize=14;fontStyle=0;strokeWidth=2;resizeParent=0;resizeLast=1;shadow=0;dashed=0;align=center;" vertex="1" parent="1">
          <mxGeometry x="-1530" y="2134" width="250" height="130" as="geometry" />
        </mxCell>
        <mxCell id="8H2uUOVwHWf8vIkHYVnv-88" value="+BidID uint32&#xa;+JobPoster types.Hash&#xa;+Worker types.Hash&#xa;+Caller types.Hash&#xa;+CSPRAmount clvalue.UInt512" style="align=left;strokeColor=none;fillColor=none;spacingLeft=4;fontSize=12;verticalAlign=top;resizable=0;rotatable=0;part=1;" vertex="1" parent="8H2uUOVwHWf8vIkHYVnv-87">
          <mxGeometry y="30" width="250" height="100" as="geometry" />
        </mxCell>
        <mxCell id="8H2uUOVwHWf8vIkHYVnv-90" value="JobRejectedEvent" style="swimlane;childLayout=stackLayout;horizontal=1;startSize=30;horizontalStack=0;rounded=1;fontSize=14;fontStyle=0;strokeWidth=2;resizeParent=0;resizeLast=1;shadow=0;dashed=0;align=center;" vertex="1" parent="1">
          <mxGeometry x="-960" y="2310" width="250" height="120" as="geometry" />
        </mxCell>
        <mxCell id="8H2uUOVwHWf8vIkHYVnv-91" value="+BidID uint32&#xa;+JobPoster types.Hash&#xa;+Worker types.Hash&#xa;+Caller types.Hash&#xa;+CSPRAmount clvalue.UInt512" style="align=left;strokeColor=none;fillColor=none;spacingLeft=4;fontSize=12;verticalAlign=top;resizable=0;rotatable=0;part=1;" vertex="1" parent="8H2uUOVwHWf8vIkHYVnv-90">
          <mxGeometry y="30" width="250" height="90" as="geometry" />
        </mxCell>
        <mxCell id="8H2uUOVwHWf8vIkHYVnv-92" value="JobDoneEvent" style="swimlane;childLayout=stackLayout;horizontal=1;startSize=30;horizontalStack=0;rounded=1;fontSize=14;fontStyle=0;strokeWidth=2;resizeParent=0;resizeLast=1;shadow=0;dashed=0;align=center;" vertex="1" parent="1">
          <mxGeometry x="-1255" y="2310" width="250" height="120" as="geometry" />
        </mxCell>
        <mxCell id="8H2uUOVwHWf8vIkHYVnv-93" value="+BidID uint32&#xa;+JobPoster types.Hash&#xa;+Worker types.Hash&#xa;+Caller types.Hash&#xa;+CSPRAmount clvalue.UInt512" style="align=left;strokeColor=none;fillColor=none;spacingLeft=4;fontSize=12;verticalAlign=top;resizable=0;rotatable=0;part=1;" vertex="1" parent="8H2uUOVwHWf8vIkHYVnv-92">
          <mxGeometry y="30" width="250" height="90" as="geometry" />
        </mxCell>
        <mxCell id="8H2uUOVwHWf8vIkHYVnv-96" value="" style="shape=curlyBracket;whiteSpace=wrap;html=1;rounded=1;labelPosition=left;verticalLabelPosition=middle;align=right;verticalAlign=middle;" vertex="1" parent="1">
          <mxGeometry x="-1155" y="1412.5" width="20" height="95" as="geometry" />
        </mxCell>
        <mxCell id="8H2uUOVwHWf8vIkHYVnv-97" value="VariableRepositoryContract" style="text;strokeColor=none;fillColor=none;html=1;fontSize=24;fontStyle=1;verticalAlign=middle;align=center;" vertex="1" parent="1">
          <mxGeometry x="-1400" y="1440" width="100" height="40" as="geometry" />
        </mxCell>
        <mxCell id="8H2uUOVwHWf8vIkHYVnv-98" value="BallotCastEvent" style="swimlane;childLayout=stackLayout;horizontal=1;startSize=30;horizontalStack=0;rounded=1;fontSize=14;fontStyle=0;strokeWidth=2;resizeParent=0;resizeLast=1;shadow=0;dashed=0;align=center;" vertex="1" parent="1">
          <mxGeometry x="-990" y="565" width="240" height="120" as="geometry" />
        </mxCell>
        <mxCell id="8H2uUOVwHWf8vIkHYVnv-99" value="+Voter types.Address&#xa;+VotingType uint8&#xa;+Choice types.Choice&#xa;+VotingID uint32&#xa;+Stake clvalue.Uint512" style="align=left;strokeColor=none;fillColor=none;spacingLeft=4;fontSize=12;verticalAlign=top;resizable=0;rotatable=0;part=1;" vertex="1" parent="8H2uUOVwHWf8vIkHYVnv-98">
          <mxGeometry y="30" width="240" height="90" as="geometry" />
        </mxCell>
        <mxCell id="8H2uUOVwHWf8vIkHYVnv-100" value="BallotСancelledEvent" style="swimlane;childLayout=stackLayout;horizontal=1;startSize=30;horizontalStack=0;rounded=1;fontSize=14;fontStyle=0;strokeWidth=2;resizeParent=0;resizeLast=1;shadow=0;dashed=0;align=center;" vertex="1" parent="1">
          <mxGeometry x="-1285" y="565" width="240" height="120" as="geometry" />
        </mxCell>
        <mxCell id="8H2uUOVwHWf8vIkHYVnv-101" value="+Voter types.Address&#xa;+VotingType uint8&#xa;+Choice types.Choice&#xa;+VotingID uint32&#xa;+Stake clvalue.Uint512" style="align=left;strokeColor=none;fillColor=none;spacingLeft=4;fontSize=12;verticalAlign=top;resizable=0;rotatable=0;part=1;" vertex="1" parent="8H2uUOVwHWf8vIkHYVnv-100">
          <mxGeometry y="30" width="240" height="90" as="geometry" />
        </mxCell>
        <mxCell id="8H2uUOVwHWf8vIkHYVnv-102" value="VotingCanceledEvent" style="swimlane;childLayout=stackLayout;horizontal=1;startSize=30;horizontalStack=0;rounded=1;fontSize=14;fontStyle=0;strokeWidth=2;resizeParent=0;resizeLast=1;shadow=0;dashed=0;align=center;" vertex="1" parent="1">
          <mxGeometry x="-1300" y="795" width="270" height="120" as="geometry" />
        </mxCell>
        <mxCell id="8H2uUOVwHWf8vIkHYVnv-103" value="+VotingID uint32&#xa;+VotingType uint8&#xa;+Unstakes map[types.Tuple2]clvalue.Uint512" style="align=left;strokeColor=none;fillColor=none;spacingLeft=4;fontSize=12;verticalAlign=top;resizable=0;rotatable=0;part=1;" vertex="1" parent="8H2uUOVwHWf8vIkHYVnv-102">
          <mxGeometry y="30" width="270" height="90" as="geometry" />
        </mxCell>
        <mxCell id="8H2uUOVwHWf8vIkHYVnv-104" value="VotingEndedEvent" style="swimlane;childLayout=stackLayout;horizontal=1;startSize=30;horizontalStack=0;rounded=1;fontSize=14;fontStyle=0;strokeWidth=2;resizeParent=0;resizeLast=1;shadow=0;dashed=0;align=center;" vertex="1" parent="1">
          <mxGeometry x="-1610" y="795" width="280" height="240" as="geometry" />
        </mxCell>
        <mxCell id="8H2uUOVwHWf8vIkHYVnv-105" value="+VotingID uint32&#xa;+VotingType uint8&#xa;+VotingResult uint8&#xa;+StakeInFavour clvalue.UInt512&#xa;+StakeAgainst clvalue.UInt512&#xa;+UnboundStakeInFavour clvalue.UInt512&#xa;+UnboundStakeAgainst clvalue.UInt512&#xa;+VotesInFavour uint32&#xa;+VotesAgainst uint32&#xa;+Unstakes map[types.Tuple2]clvalue.UInt512&#xa;+Stakes map[types.Tuple2]clvalue.UInt512&#xa;+Burns map[types.Tuple2]clvalue.UInt512&#xa;+Mints map[types.Tuple2]clvalue.UInt512&#xa;" style="align=left;strokeColor=none;fillColor=none;spacingLeft=4;fontSize=12;verticalAlign=top;resizable=0;rotatable=0;part=1;" vertex="1" parent="8H2uUOVwHWf8vIkHYVnv-104">
          <mxGeometry y="30" width="280" height="210" as="geometry" />
        </mxCell>
        <mxCell id="8H2uUOVwHWf8vIkHYVnv-106" value="VotingCreatedEvent" style="swimlane;childLayout=stackLayout;horizontal=1;startSize=30;horizontalStack=0;rounded=1;fontSize=14;fontStyle=0;strokeWidth=2;resizeParent=0;resizeLast=1;shadow=0;dashed=0;align=center;" vertex="1" parent="1">
          <mxGeometry x="-1010" y="790" width="320" height="250" as="geometry" />
        </mxCell>
        <mxCell id="8H2uUOVwHWf8vIkHYVnv-107" value="+AddressToSlash types.Address&#xa;+SlashRation uin32&#xa;+Creator types.Address&#xa;+Stake clvalue.UInt512&#xa;+VotingID uint32&#xa;+ConfigInformalQuorum uin32&#xa;+ConfigInformalVotingTime uin64&#xa;+ConfigFormalQuorum uin32&#xa;+ConfigFormalVotingTime uin64&#xa;+ConfigTotalOnboarded clvalue.UInt512&#xa;+ConfigDoubleTimeBetweenVotings bool&#xa;+ConfigVotingClearnessDelta clvalue.UInt512&#xa;+ConfigTimeBetweenInformalAndFormalVoting uint32" style="align=left;strokeColor=none;fillColor=none;spacingLeft=4;fontSize=12;verticalAlign=top;resizable=0;rotatable=0;part=1;" vertex="1" parent="8H2uUOVwHWf8vIkHYVnv-106">
          <mxGeometry y="30" width="320" height="220" as="geometry" />
        </mxCell>
        <mxCell id="8H2uUOVwHWf8vIkHYVnv-110" value="" style="shape=curlyBracket;whiteSpace=wrap;html=1;rounded=1;labelPosition=left;verticalLabelPosition=middle;align=right;verticalAlign=middle;" vertex="1" parent="1">
          <mxGeometry x="-1870" y="565" width="20" height="490" as="geometry" />
        </mxCell>
        <mxCell id="8H2uUOVwHWf8vIkHYVnv-111" value="For all voter contracts" style="text;strokeColor=none;fillColor=none;html=1;fontSize=24;fontStyle=1;verticalAlign=middle;align=center;" vertex="1" parent="1">
          <mxGeometry x="-2117" y="780" width="100" height="40" as="geometry" />
        </mxCell>
      </root>
    </mxGraphModel>
  </diagram>
</mxfile>
